<?xml version="1.0" standalone="no"?>
<!DOCTYPE svg PUBLIC "-//W3C//DTD SVG 20010904//EN"
 "http://www.w3.org/TR/2001/REC-SVG-20010904/DTD/svg10.dtd">
<svg version="1.0" xmlns="http://www.w3.org/2000/svg"
 width="512.000000pt" height="512.000000pt" viewBox="0 0 512.000000 512.000000"
 preserveAspectRatio="xMidYMid meet">
<metadata>
Created by potrace 1.14, written by Peter Selinger 2001-2017
</metadata>
<g transform="translate(0.000000,512.000000) scale(0.100000,-0.100000)"
fill="#000000" stroke="none">
<path d="M3490 5033 c-19 -25 -21 -37 -17 -108 2 -44 7 -93 11 -110 4 -16 11
-55 17 -85 21 -115 17 -111 179 -145 45 -9 115 -35 175 -65 55 -27 111 -50
125 -50 33 0 96 30 169 79 68 47 101 84 101 116 0 94 -543 395 -711 395 -18 0
-35 -10 -49 -27z"/>
<path d="M3107 4875 c-85 -23 -160 -67 -222 -129 -63 -64 -125 -134 -125 -143
0 -3 -9 -17 -19 -32 -63 -88 -171 -358 -268 -666 -19 -60 -36 -114 -37 -120
-1 -5 -9 -35 -18 -65 -39 -138 -49 -219 -37 -288 22 -116 104 -219 238 -298
123 -72 324 -167 496 -234 255 -98 363 -159 471 -265 34 -33 71 -79 83 -102
81 -160 52 -444 -72 -688 -156 -310 -387 -563 -712 -780 -159 -106 -346 -197
-475 -229 -8 -3 -51 -14 -96 -25 -45 -12 -90 -23 -100 -25 -215 -42 -307 -106
-290 -201 14 -74 89 -118 243 -140 21 -4 45 -8 53 -10 87 -23 584 -23 653 0 6
2 30 6 52 9 264 34 642 175 913 340 51 31 98 61 105 66 7 5 54 42 106 81 159
121 347 322 447 479 80 126 155 282 200 420 27 80 72 247 78 289 3 14 7 44 10
66 4 22 9 58 13 80 9 58 9 392 0 449 -34 208 -75 305 -225 535 -41 63 -87 140
-102 170 -87 175 -71 336 46 454 23 24 142 110 264 191 242 161 262 178 254
201 -14 35 -221 141 -385 196 -129 43 -168 46 -226 18 -46 -22 -261 -174 -294
-209 -30 -31 -46 -74 -53 -140 -9 -97 -58 -233 -104 -293 -40 -51 -114 -117
-154 -137 -201 -98 -488 -48 -621 109 -79 93 -109 165 -115 274 -8 164 30 272
140 395 79 87 86 115 64 247 -30 170 -49 186 -179 150z"/>
<path d="M3479 4376 c-143 -51 -207 -213 -141 -358 29 -62 61 -94 124 -123 46
-21 66 -24 134 -21 102 4 164 32 209 95 41 56 54 104 51 185 -4 107 -56 175
-166 217 -58 22 -157 25 -211 5z"/>
<path d="M2158 3119 c-44 -23 -97 -89 -140 -177 -60 -121 -41 -213 74 -366 99
-132 197 -211 366 -296 110 -55 174 -77 314 -105 167 -33 203 -55 183 -111
-12 -31 -70 -82 -106 -91 -13 -3 -63 -8 -110 -10 -68 -4 -103 0 -165 17 -242
66 -439 188 -596 369 -55 63 -84 82 -130 86 -51 4 -96 -13 -133 -51 -41 -44
-113 -157 -153 -242 -30 -65 -36 -88 -36 -148 -1 -63 2 -75 27 -108 74 -97
261 -191 437 -221 47 -8 99 -34 110 -55 14 -26 -26 -79 -81 -108 -112 -57
-270 -21 -500 114 -42 24 -87 44 -101 44 -36 0 -67 -39 -154 -190 -149 -262
-243 -387 -444 -590 -120 -121 -198 -180 -428 -322 -384 -237 -419 -268 -382
-339 12 -21 70 -53 115 -63 17 -3 41 -9 55 -12 14 -3 77 -8 140 -11 99 -5 127
-2 195 16 140 39 201 75 547 323 312 224 507 336 718 413 79 28 103 35 320 91
232 60 378 111 515 182 234 121 436 290 586 489 87 116 95 130 174 288 98 197
125 334 90 453 -20 66 -50 100 -138 160 -68 45 -112 64 -512 220 -118 46 -272
138 -355 213 -87 78 -144 125 -164 136 -40 21 -99 22 -138 2z"/>
</g>
</svg>
