<svg width="537" height="96" viewBox="0 0 537 96" fill="none" xmlns="http://www.w3.org/2000/svg">
<path d="M129 54.9512C129 71.4195 140.53 85 161.393 85C171.433 85 179.747 82.4244 185.708 78.7561V65.4878C185.708 61.4554 185.93 59.8294 190.832 59.4V55.0293H165.237V59.4C171.119 59.6341 173.159 60.6488 173.159 65.4878V76.2585C170.727 78.2878 167.747 79.2244 162.884 79.2244C149.001 79.2244 142.726 66.8146 142.726 52.0634C142.726 39.4195 147.667 28.1024 160.923 28.1024C170.256 28.1024 175.433 32.7073 178.492 42.1512H184.139L183.826 28.5707C179.276 25.2927 172.139 22.561 162.021 22.561C143.667 22.561 129 35.0488 129 54.9512Z" fill="#483E5E"/>
<path d="M220.87 79.7707C213.419 79.7707 209.497 72.122 209.497 61.039C209.497 52.5317 212.007 46.522 218.438 46.522C225.811 46.522 229.733 54.1707 229.733 65.2537C229.733 73.839 227.302 79.7707 220.87 79.7707ZM218.831 85C231.929 85 242.126 76.2585 242.126 62.3659C242.126 50.3463 233.498 41.2927 220.399 41.2927C207.301 41.2927 197.104 50.0341 197.104 63.9268C197.104 76.0244 205.732 85 218.831 85Z" fill="#483E5E"/>
<path d="M263.376 27.7902L263.768 21H260.866L246.67 24.5122V26.8537L251.768 30.1317V75.7122C251.768 79.3024 249.886 79.6927 246.278 80.161V84.2195H268.945V80.161C265.337 79.6927 263.376 79.3024 263.376 75.7122V27.7902Z" fill="#483E5E"/>
<path d="M297.106 46.3659C302.283 46.3659 305.891 49.3317 305.891 55.0293V73.9171C303.616 75.9463 300.793 77.1171 297.342 77.1171C289.498 77.1171 285.733 70.4829 285.733 61.6634C285.733 52.2195 290.047 46.3659 297.106 46.3659ZM323.225 82.3463V78.1317L321.264 78.0537C318.284 77.8976 317.499 76.8049 317.499 74.1512V27.7902L317.891 21H314.989L300.793 24.5122V26.8537L305.891 30.1317V43.9463C303.459 42.3073 300.165 41.2927 296.087 41.2927C283.772 41.2927 273.654 50.4244 273.654 65.0976C273.654 76.8829 280.4 85 291.93 85C298.126 85 302.91 81.9561 305.891 77.5854L305.499 85H307.773L323.225 82.3463Z" fill="#483E5E"/>
<path d="M375.722 42.0732H346.466V37.9366C346.466 29.7415 348.584 25.5268 354.309 25.5268C358.074 25.5268 359.721 27.7902 359.721 31.6927V34.8146H368.428C370.467 33.8 371.408 31.6927 371.408 29.5073C371.408 24.5122 366.781 21 356.506 21C343.093 21 334.858 28.1024 334.858 39.8098V40.8244L328.818 43.6341V47.1463H334.858V75.7122C334.858 79.3024 332.975 79.6927 329.367 80.161V84.2195H352.662V80.161C348.192 79.6146 346.466 79.3024 346.466 75.5561V47.1463H363.643V75.7122C363.643 79.3024 361.761 79.6927 358.153 80.161V84.2195H380.82V80.161C377.212 79.6927 375.33 79.3024 375.33 75.7122V49.6439L375.722 42.0732Z" fill="#483E5E"/>
<path d="M420.737 75.7122C420.737 79.3024 418.855 79.6927 415.247 80.161V84.2195H437.915V80.161C434.307 79.6927 432.346 79.3024 432.346 75.7122V54.0927C432.346 45.1951 426.934 41.2927 419.169 41.2927C412.659 41.2927 407.011 45.1951 403.56 48.9415L403.952 41.1366H401.05L386.854 45.1951V47.5366L391.952 51.2049V75.7122C391.952 79.3024 390.07 79.6927 386.462 80.161V84.2195H409.129V80.161C405.521 79.6927 403.56 79.3024 403.56 75.7122V52.4537C406.306 50.7366 410.384 49.2537 414.071 49.2537C418.541 49.2537 420.737 50.9707 420.737 55.5756V75.7122Z" fill="#483E5E"/>
<path d="M452.331 60.1024C452.331 51.2829 456.723 46.3659 462.92 46.3659C468.018 46.3659 469.586 49.5659 469.586 54.3268V57.6049H477.116C479.077 56.8244 480.41 54.8732 480.41 52.0634C480.41 45.5073 473.822 41.2927 464.567 41.2927C451.39 41.2927 441.507 50.4244 441.507 64.4732C441.507 76.0244 449.037 85 462.057 85C472.724 85 478.763 79.3805 481.273 71.7317L478.293 70.2488C475.626 73.5268 471.783 76.1024 466.135 76.1024C456.959 76.1024 452.331 69.9366 452.331 60.1024Z" fill="#483E5E"/>
<path d="M490.116 30.1317V75.7122C490.116 79.3024 488.233 79.6927 484.625 80.161V84.2195H507.215V80.161C503.607 79.6927 501.724 79.3024 501.724 75.7122V52.4537C504.391 50.7366 508.548 49.2537 512.156 49.2537C516.627 49.2537 518.901 50.9707 518.901 55.5756V75.7122C518.901 79.3024 517.019 79.6927 513.411 80.161V84.2195H536V80.161C532.392 79.6927 530.51 79.3024 530.51 75.7122V54.0927C530.51 45.1951 525.019 41.2927 517.254 41.2927C510.823 41.2927 505.175 45.1951 501.724 48.9415V27.7902L502.116 21H499.214L485.018 24.5122V26.8537L490.116 30.1317Z" fill="#483E5E"/>
<path d="M74.2632 22.2761C72.4822 24.2448 68.3261 24.2257 66.5451 22.4539C64.764 20.6821 64.1702 17.2525 66.5451 15.0869C68.9199 12.9214 72.4822 13.7111 74.2632 15.286C76.0443 16.861 76.0443 20.3074 74.2632 22.2761Z" fill="#483E5E"/>
<path d="M55.5647 8.20876C53.6203 10.567 52.8654 11.9406 51.3981 15.6997C49.4966 20.5708 47.787 25.9495 47.0925 29.2788C46.3981 32.6081 47.7815 35.4676 50.9348 37.4171C54.2706 39.4794 57.8663 41.0848 62.7273 42.8882C67.5884 44.6916 71.0762 47.2624 72.1873 49.8981C73.2984 52.5338 73.0458 57.6093 70.5459 62.4645C68.0459 67.3197 64.5619 71.8315 58.4509 76.2705C52.3399 80.7096 48.1656 81.765 42.1228 83.1522C36.0799 84.5394 38.0644 87.9574 40.1477 88.651C42.231 89.3446 46.814 90.0382 52.9252 89.7608C59.0365 89.4833 65.1397 87.9574 72.3618 84.3507C79.5839 80.744 86.6671 74.5016 90.4246 66.1784C94.1822 57.8551 95.6805 46.1123 91.3266 38.7117C88.7966 34.4114 87.5004 33.376 86.6671 30.666C85.8338 27.9559 86.3673 25.8909 87.9195 24.0074C88.8145 22.9215 90.8148 21.8282 92.6473 20.5208C94.0917 19.4903 95.8336 18.4586 97.0836 17.6263C98.3336 16.794 98.7583 16.3592 97.925 15.8043L97.8952 15.7844C97.0522 15.223 95.3906 14.1163 92.5003 13.0485C89.5756 11.968 89.0249 11.8193 87.9195 11.731C86.8141 11.6427 85.4253 12.6137 83.2031 14.2784C80.9809 15.943 80.0086 16.2681 79.8697 18.1625C79.7309 20.057 79.1754 22.4629 77.6476 24.5437C76.1198 26.6245 74.0719 27.681 71.3298 27.9559C68.5877 28.2309 64.8796 27.3889 63.0564 25.2559C61.2332 23.1229 60.4985 21.9065 60.4985 18.8817C60.4985 15.857 61.6756 13.7235 63.2406 12.1976C64.8055 10.6716 64.7311 10.1168 64.7311 9.42316C64.7311 8.72956 64.3674 6.37025 64.0632 5.27035C63.7589 4.17044 62.6671 3.9973 60.8848 4.57624C59.0184 5.18248 57.5091 5.85052 55.5647 8.20876Z" fill="#483E5E"/>
<path d="M28.0298 66.1046C27.1298 66.3396 26.4987 67.8675 24.732 70.9231C22.9653 73.9788 21.3078 76.2117 18.1451 79.6199C14.9825 83.0282 12.9958 84.4385 7.9648 87.4941L7.83491 87.573C2.90842 90.5651 1.45949 91.4451 1.11764 92.3502C0.772803 93.2631 0.975638 94.4658 4.674 95.0299C8.37237 95.5941 11.4556 95.7208 16.7981 92.0776C22.1407 88.4343 26.3384 84.9086 31.8741 82.323C37.4098 79.7375 39.1429 79.8999 45.3435 78.0921C51.5441 76.2843 57.1966 72.7368 61.0973 68.4259C64.9979 64.115 66.9481 59.77 67.7379 57.3011C68.5278 54.8321 68.64 51.5423 66.5302 49.8967C64.5144 48.3245 63.4252 47.8518 58.9759 46.2062C54.2441 44.4562 52.6732 44.0176 49.1872 41.275C45.9021 38.6904 46.097 38.0727 44.0327 37.7984C41.9684 37.5242 40.4038 40.5797 39.7072 42.1093C39.1831 43.2604 39.0935 45.2925 40.4813 47.2052C41.8691 49.1179 43.1595 51.223 46.9607 53.3602C50.762 55.4974 52.533 55.8393 55.1248 56.2667C57.7166 56.6942 58.7286 57.3011 58.0321 58.5185C57.3355 59.7359 55.9424 60.3263 53.5741 60.3263C51.2058 60.3263 47.8624 59.2479 44.519 57.3011C42.1612 55.9281 40.479 54.3808 39.25 52.8511C38.0554 51.3643 37.339 51.1482 36.2314 51.1482C35.1238 51.1482 34.2127 51.8435 32.888 53.7904C31.5632 55.7372 30.588 57.8462 30.4487 58.9886C30.3094 60.1309 30.1844 61.405 32.274 62.9346C34.3637 64.4643 36.1692 65.2958 38.5375 65.7129C40.9058 66.1301 42.708 66.8621 40.9732 68.4259C39.2385 69.9897 37.1356 69.6433 35.4639 69.2261C33.7922 68.809 31.3665 67.5149 30.4487 66.9273C29.5308 66.3396 28.9298 65.8695 28.0298 66.1046Z" fill="#483E5E"/>
<path d="M80.534 11.1927C81.7909 10.4187 83.1799 9.40276 83.1799 8.69211C83.1799 7.98146 82.4724 7.12868 79.5012 5.28099C76.5299 3.43331 72.4268 1.3348 69.7385 1.017C67.0502 0.699209 68.2148 4.92627 68.5316 6.59794C68.8484 8.26961 68.9429 9.57103 70.0601 9.70617C71.1773 9.84131 72.0152 9.97642 72.9928 10.2467C73.9703 10.517 75.2272 11.0998 76.6237 11.9106C78.0202 12.7215 79.2771 11.9667 80.534 11.1927Z" fill="#483E5E"/>
</svg>
