<svg fill="none" viewBox="0 0 70 60" xmlns="http://www.w3.org/2000/svg">
  <g clip-path="url(#file-folder_svg__a)">
    <path fill="#E7E5E4" d="M4 60h62a4 4 0 0 0 4-4V8a4 4 0 0 0-4-4H34.236A3.618 3.618 0 0 1 31 2a3.618 3.618 0 0 0-3.236-2H8.236C6.866 0 5.613.774 5 2l-.317.633A2.472 2.472 0 0 1 2.473 4 2.472 2.472 0 0 0 0 6.472V56a4 4 0 0 0 4 4Z"/>
    <path fill="#F5F5F4" d="M0 12a4 4 0 0 1 4-4h24.586C29.49 8 30.36 7.64 31 7c.64-.64 1.509-1 2.414-1H66a4 4 0 0 1 4 4v46a4 4 0 0 1-4 4H4a4 4 0 0 1-4-4V12Z"/>
    <path fill="#44403C" d="M36 18a1 1 0 1 0-2 0v21.586l-8.293-8.293a1 1 0 0 0-1.414 1.414l10 10a1 1 0 0 0 1.414 0l10-10a1 1 0 0 0-1.414-1.414L36 39.586V18ZM23 47a1 1 0 1 0 0 2h24a1 1 0 1 0 0-2H23Z"/>
  </g>
  <defs>
    <clipPath id="file-folder_svg__a">
      <path fill="#fff" d="M0 0h70v60H0z"/>
    </clipPath>
  </defs>
</svg>
