<svg width="56" height="43" viewBox="0 0 56 43" fill="none" xmlns="http://www.w3.org/2000/svg">
<path fill-rule="evenodd" clip-rule="evenodd" d="M46.9696 10.2659C46.9844 11.0315 47 11.8335 47 12.6705V20.7283C47.1043 22.0661 46.8293 23.9277 45.6147 25.5514C44.2317 27.4001 41.9733 28.4886 39 28.4886H20.5C18.8431 28.4886 17.5 27.1455 17.5 25.4886C17.5 23.8318 18.8431 22.4886 20.5 22.4886H39C39.7497 22.4886 40.186 22.358 40.4182 22.2523C40.6387 22.1519 40.746 22.0432 40.8103 21.9572C40.9796 21.7309 41.0384 21.3804 41.0174 21.1861L41 21.0253V12.6705C41 12.1009 40.988 11.4448 40.9752 10.7507C40.9467 9.19638 40.9147 7.45138 41.0065 6.06076C41.0733 5.04955 41.2189 3.83546 41.6417 2.79263C42.0713 1.73278 43.2027 0 45.5 0C48.9214 0 51.7588 1.2996 53.6249 3.86157C55.3759 6.26551 56 9.41222 56 12.6705V40C56 41.6569 54.6568 43 53 43C51.3431 43 50 41.6569 50 40V12.6705C50 10.0423 49.4741 8.35381 48.7751 7.39411C48.3864 6.86056 47.8522 6.41968 47.014 6.18447C47.0067 6.26968 46.9998 6.36021 46.9935 6.45629C46.9179 7.6001 46.9426 8.87283 46.9696 10.2659Z" fill="black"/>
<path fill-rule="evenodd" clip-rule="evenodd" d="M13.0171 11.1733C13.0088 11.6262 13 12.1016 13 12.6705V20.7283C12.8957 22.0661 13.1707 23.9277 14.3853 25.5514C15.7683 27.4001 18.0267 28.4886 21 28.4886C22.6569 28.4886 24 27.1455 24 25.4886C24 23.8318 22.6569 22.4886 21 22.4886C20.2503 22.4886 19.814 22.358 19.5818 22.2523C19.3613 22.1519 19.254 22.0432 19.1897 21.9572C19.0204 21.7309 18.9616 21.3804 18.9826 21.1861L19 21.0253V12.6705C19 12.3522 19.0065 11.9378 19.0135 11.488C19.0246 10.782 19.037 9.98887 19.0278 9.34319C19.0112 8.16679 18.9325 6.81384 18.6097 5.52804C18.2844 4.23206 17.654 2.77511 16.3641 1.65478C15.0327 0.498445 13.3464 0 11.5 0C8.12546 0 5.14554 1.25415 3.04454 3.64974C0.980547 6.00314 7.62939e-06 9.18387 7.62939e-06 12.6705V40C7.62939e-06 41.6569 1.34315 43 3.00001 43C4.65686 43 6.00001 41.6569 6.00001 40V12.6705C6.00001 10.2707 6.66947 8.61618 7.55547 7.60594C8.40447 6.63789 9.67455 6 11.5 6C11.8894 6 12.1228 6.05129 12.2475 6.09239C12.3628 6.13037 12.4091 6.16685 12.4297 6.1847C12.471 6.22062 12.6407 6.39294 12.7903 6.98901C12.9425 7.59525 13.0138 8.39713 13.0284 9.42812C13.0375 10.069 13.0276 10.6034 13.0171 11.1733Z" fill="black"/>
<path d="M28 39C28 41.2091 26.2091 43 24 43C21.7909 43 20 41.2091 20 39C20 36.7909 21.7909 35 24 35C26.2091 35 28 36.7909 28 39Z" fill="black"/>
<path d="M46 39C46 41.2091 44.2091 43 42 43C39.7909 43 38 41.2091 38 39C38 36.7909 39.7909 35 42 35C44.2091 35 46 36.7909 46 39Z" fill="black"/>
</svg>
