<svg width="20" height="20" viewBox="0 0 20 20" fill="none" xmlns="http://www.w3.org/2000/svg">
  <path fill-rule="evenodd" clip-rule="evenodd" d="M10 16C13.3137 16 16 13.3137 16 10C16 6.68629 13.3137 4 10 4C6.68629 4 4 6.68629 4 10C4 13.3137 6.68629 16 10 16ZM11 7C11 7.55228 10.5523 8 10 8C9.44771 8 9 7.55228 9 7C9 6.44772 9.44771 6 10 6C10.5523 6 11 6.44772 11 7ZM8 10C8 9.44771 8.44772 9 9 9H11V12C11.5523 12 12 12.4477 12 13C12 13.5523 11.5523 14 11 14H9V11C8.44771 11 8 10.5523 8 10Z" fill="currentColor"/>
</svg>
