<svg width="32" height="32" viewBox="0 0 32 32" fill="none" xmlns="http://www.w3.org/2000/svg">
<path d="M17.1276 14.7988L17.226 12.7508H16.5368L13.6814 13.7354V14.208L15.1583 14.8973V21.4942C15.1583 22.4 14.4888 22.4985 13.5829 22.6167V23.3847H18.7029V22.6167C17.7971 22.4985 17.1276 22.4 17.1276 21.4942V14.7988ZM14.7448 9.67882C14.7448 10.4468 15.3553 11.0573 16.1233 11.0573C16.8913 11.0573 17.5017 10.4468 17.5017 9.67882C17.5017 8.91082 16.8913 8.30035 16.1233 8.30035C15.3553 8.30035 14.7448 8.91082 14.7448 9.67882Z" fill="#483E5E"/>
<path fill-rule="evenodd" clip-rule="evenodd" d="M16 30.1538C23.817 30.1538 30.1538 23.817 30.1538 16C30.1538 8.18305 23.817 1.84615 16 1.84615C8.18305 1.84615 1.84615 8.18305 1.84615 16C1.84615 23.817 8.18305 30.1538 16 30.1538ZM16 32C24.8366 32 32 24.8366 32 16C32 7.16344 24.8366 0 16 0C7.16344 0 0 7.16344 0 16C0 24.8366 7.16344 32 16 32Z" fill="#483E5E"/>
</svg>
