<svg fill="none" viewBox="0 0 29 28" xmlns="http://www.w3.org/2000/svg">
  <path fill="#483E5E" d="M24.138 2.283c0 .211-.408.513-.778.743-.369.23-.738.453-1.148.213-.41-.241-.78-.414-1.067-.494a5.454 5.454 0 0 0-.86-.16c-.292-.036-.347-.345-.42-.76l-.03-.163-.033-.166c-.116-.564-.325-1.576.388-1.491.79.094 1.994.717 2.867 1.266.873.548 1.08.801 1.08 1.012Z"/>
  <path fill="#483E5E" d="M14.803 4.363c.43-1.115.652-1.523 1.224-2.223.57-.7 1.014-.899 1.562-1.078.524-.172.844-.12.934.206.09.326.196 1.026.196 1.232v.027c0 .194.002.364-.438.797-.46.453-.805 1.086-.805 1.984 0 .898.216 1.259.751 1.892.536.633 1.625.883 2.43.801.805-.081 1.407-.395 1.856-1.012.448-.618.612-1.332.652-1.895.034-.466.236-.612.677-.93.09-.065.191-.138.303-.223.652-.494 1.06-.782 1.385-.756.325.026.486.07 1.345.391.85.317 1.337.646 1.585.812l.009.006c.244.165.12.294-.248.541-.137.093-.294.193-.46.3a18.6 18.6 0 0 0-.843.56c-.167.12-.339.234-.504.344-.367.245-.703.468-.884.69-.456.56-.613 1.172-.368 1.977.152.5.358.809.67 1.279.19.284.418.628.698 1.109 1.28 2.197.84 5.682-.264 8.153-1.104 2.47-3.184 4.323-5.306 5.394-2.121 1.07-3.914 1.524-5.709 1.606-1.795.082-3.14-.123-3.753-.33-.611-.205-1.194-1.22.58-1.632 1.775-.411 3.001-.725 4.796-2.042 1.795-1.318 2.819-2.657 3.553-4.098.734-1.442.808-2.948.482-3.73-.326-.783-1.35-1.546-2.779-2.081-1.427-.536-2.483-1.012-3.463-1.624-.926-.579-1.333-1.428-1.129-2.416.204-.988.706-2.585 1.265-4.03Z"/>
  <path fill="#483E5E" d="M19.252 6.368c.523.526 1.744.532 2.267-.053.523-.584.523-1.607 0-2.074-.523-.468-1.57-.702-2.267-.06-.698.643-.523 1.661 0 2.187ZM7.94 19.325c-.206.054-.364.34-.668.89a36.04 36.04 0 0 1-.301.54c-.52.907-1.006 1.57-1.935 2.582-.93 1.012-1.513 1.43-2.99 2.337l-.038.024C.56 26.586.135 26.847.035 27.116c-.102.27-.042.628 1.044.795 1.086.167 1.992.205 3.561-.876.424-.293.824-.582 1.213-.865 1.052-.762 2.029-1.47 3.215-2.03 1.098-.519 1.687-.665 2.514-.871.398-.099.851-.211 1.442-.386 1.822-.536 3.482-1.59 4.628-2.869 1.145-1.28 1.718-2.57 1.95-3.302.232-.733.265-1.71-.355-2.198-.592-.467-.912-.607-2.218-1.095l-.34-.127c-1.134-.42-1.6-.593-2.536-1.337-.32-.255-.528-.445-.684-.589-.316-.289-.425-.389-.83-.443-.606-.082-1.065.825-1.27 1.28-.154.341-.18.944.227 1.512l.106.148c.373.528.777 1.1 1.797 1.68 1.117.634 1.637.735 2.398.862.762.127 1.059.307.854.668-.204.362-.614.537-1.31.537-.695 0-1.677-.32-2.659-.898a5.52 5.52 0 0 1-1.547-1.32c-.351-.442-.562-.506-.887-.506-.325 0-.593.206-.982.784-.389.578-.675 1.204-.716 1.543-.041.339-.078.717.536 1.171.614.454 1.144.701 1.84.825.695.124 1.224.341.715.805-.51.464-1.127.361-1.618.238-.491-.124-1.204-.508-1.473-.683l-.07-.045c-.232-.152-.4-.262-.64-.199Z"/>
</svg>
