<svg xmlns="http://www.w3.org/2000/svg" viewBox="0 0 20 20" fill="none">
  <path fill="currentColor" d="M10 2c-4.414 0-8 3.586-8 8s3.586 8 8 8 8-3.586 8-8-3.586-8-8-8zm5.269 12.441a8.584 8.584 0 0 0-1.159-.496c.331-1.02.552-2.18.58-3.448h2.207c-.138 1.517-.718 2.869-1.628 3.944ZM3.131 10.524h2.207c.055 1.241.248 2.428.58 3.448-.414.138-.8.304-1.16.497a6.824 6.824 0 0 1-1.627-3.945Zm1.6-4.965c.359.193.772.358 1.159.496-.331.993-.525 2.152-.58 3.393H3.103a7.071 7.071 0 0 1 1.628-3.89Zm4.717 0a9.582 9.582 0 0 1-2.041-.276c.524-1.104 1.241-1.876 2.041-2.125Zm0 1.103v2.759H6.442c.055-1.104.248-2.152.551-3.062.773.165 1.6.275 2.455.303zm0 3.862v2.814c-.855.028-1.682.138-2.482.331a12.05 12.05 0 0 1-.552-3.117h3.034zm0 3.917v2.373c-.8-.248-1.517-1.02-2.041-2.124.634-.138 1.324-.221 2.041-.249Zm1.104 0a9.58 9.58 0 0 1 2.041.276c-.524 1.104-1.241 1.876-2.041 2.124zm0-1.103v-2.814h3.034c-.055 1.131-.248 2.207-.551 3.117-.8-.165-1.628-.276-2.483-.303zm0-3.917V6.662a12.235 12.235 0 0 0 2.482-.331c.304.91.497 1.959.552 3.062h-3.034zm0-3.862V3.186c.8.248 1.517 1.02 2.041 2.124-.634.138-1.324.221-2.041.249Zm2.427-1.766c.525.248 1.021.58 1.462.938-.248.11-.496.193-.744.276-.221-.441-.442-.855-.718-1.214ZM6.304 5.007c-.249-.083-.497-.193-.745-.276.441-.359.938-.69 1.462-.938-.276.359-.497.773-.718 1.214Zm0 9.986c.22.442.44.855.717 1.214a7.343 7.343 0 0 1-1.462-.938c.248-.083.496-.193.744-.276Zm7.393 0c.248.083.496.193.745.276a7.33 7.33 0 0 1-1.463.938c.276-.359.497-.772.718-1.214zm.993-5.572c-.056-1.242-.248-2.373-.58-3.393.414-.138.8-.304 1.159-.497a6.734 6.734 0 0 1 1.6 3.862h-2.18z"/>
</svg>
