<svg fill="none" viewBox="0 0 20 20" xmlns="http://www.w3.org/2000/svg">
  <path fill="currentColor" d="M15.631 15.635h-2.369v-3.713c0-.885-.018-2.025-1.235-2.025-1.235 0-1.424.964-1.424 1.96v3.778H8.234V8h2.276v1.04h.03c.319-.6 1.092-1.233 2.247-1.233 2.401 0 2.845 1.58 2.845 3.637v4.19ZM5.558 6.955A1.375 1.375 0 0 1 4.183 5.58a1.376 1.376 0 1 1 1.375 1.377Zm1.188 8.68H4.37V8h2.376v7.635ZM16.816 2H3.182C2.528 2 2 2.516 2 3.153v13.694C2 17.485 2.528 18 3.18 18h13.635c.652 0 1.185-.515 1.185-1.153V3.153C18 2.516 17.467 2 16.815 2h.002Z"/>
</svg>
