<svg fill="none" viewBox="0 0 20 20" xmlns="http://www.w3.org/2000/svg">
  <path fill="currentColor" d="M17.969 5.549a6.666 6.666 0 0 1-1.884.517 3.305 3.305 0 0 0 1.442-1.816c-.634.37-1.336.64-2.084.79a3.28 3.28 0 0 0-5.59 2.988 9.292 9.292 0 0 1-6.76-3.418c-.294.5-.447 1.07-.444 1.65 0 1.14.58 2.142 1.459 2.731a3.27 3.27 0 0 1-1.485-.41v.04a3.282 3.282 0 0 0 2.63 3.217 3.33 3.33 0 0 1-1.474.057 3.29 3.29 0 0 0 3.069 2.278 6.578 6.578 0 0 1-4.068 1.403c-.26 0-.52-.015-.78-.044a9.33 9.33 0 0 0 5.038 1.472c6.035 0 9.332-4.997 9.332-9.323 0-.14 0-.28-.01-.42A6.623 6.623 0 0 0 18 5.562l-.031-.013Z"/>
</svg>
