<svg fill="none" viewBox="0 0 20 20" xmlns="http://www.w3.org/2000/svg">
  <circle fill="white" cx="10" cy="10" r="9.5" />
  <path fill="#2775CA" fill-rule="evenodd" d="M10 20c5.542 0 10-4.458 10-10S15.542 0 10 0 0 4.458 0 10s4.458 10 10 10Zm2.75-8.417c0-1.458-.875-1.958-2.625-2.166-1.25-.167-1.5-.5-1.5-1.084 0-.583.417-.958 1.25-.958.75 0 1.167.25 1.375.875a.313.313 0 0 0 .292.208h.666a.285.285 0 0 0 .292-.291v-.042a2.082 2.082 0 0 0-1.875-1.708v-1c0-.167-.125-.292-.333-.334h-.625c-.167 0-.292.125-.334.334v.958c-1.25.167-2.041 1-2.041 2.042 0 1.375.833 1.916 2.583 2.125 1.167.208 1.542.458 1.542 1.125 0 .666-.584 1.125-1.375 1.125-1.084 0-1.459-.459-1.584-1.084-.041-.166-.166-.25-.291-.25h-.709a.285.285 0 0 0-.291.292v.042c.166 1.041.833 1.791 2.208 2v1c0 .166.125.291.333.333h.625c.167 0 .292-.125.334-.333v-1c1.25-.209 2.083-1.084 2.083-2.209ZM4.167 7.958c-1.209 3.209.458 6.834 3.708 8 .125.084.25.25.25.375v.584c0 .083 0 .125-.042.166-.041.167-.208.25-.375.167a7.496 7.496 0 0 1-4.875-4.875c-1.25-3.958.917-8.167 4.875-9.417.042-.041.125-.041.167-.041.167.041.25.166.25.333v.583c0 .209-.083.334-.25.417a6.164 6.164 0 0 0-3.708 3.708Zm7.75-4.833c.041-.167.208-.25.375-.167a7.557 7.557 0 0 1 4.875 4.917c1.25 3.958-.917 8.167-4.875 9.417-.042.041-.125.041-.167.041-.167-.041-.25-.166-.25-.333v-.583c0-.209.083-.334.25-.417a6.164 6.164 0 0 0 3.708-3.708c1.209-3.209-.458-6.834-3.708-8-.125-.084-.25-.25-.25-.417v-.583c0-.084 0-.125.042-.167Z" clip-rule="evenodd"/>
</svg>
