<svg width="62" height="54" viewBox="0 0 62 54" fill="none" xmlns="http://www.w3.org/2000/svg">
<path d="M46.786 16.4765C45.6421 15.7924 44.155 15.7924 42.8967 16.4765L33.9742 21.7216L27.9114 25.1424L18.9889 30.3875C17.845 31.0716 16.3579 31.0716 15.0996 30.3875L8.00738 26.2826C6.86347 25.5984 6.06273 24.3442 6.06273 22.9759V14.8802C6.06273 13.5119 6.74908 12.2576 8.00738 11.5735L14.9852 7.58261C16.1292 6.89847 17.6162 6.89847 18.8745 7.58261L25.8524 11.5735C26.9963 12.2576 27.797 13.5119 27.797 14.8802V20.1253L33.8598 16.5905V11.3454C33.8598 9.97712 33.1734 8.72286 31.9151 8.03871L18.9889 0.513109C17.845 -0.171036 16.3579 -0.171036 15.0996 0.513109L1.94465 8.03871C0.686347 8.72286 0 9.97712 0 11.3454V26.5106C0 27.8789 0.686347 29.1332 1.94465 29.8173L15.0996 37.3429C16.2435 38.0271 17.7306 38.0271 18.9889 37.3429L27.9114 32.2119L33.9742 28.6771L42.8967 23.546C44.0406 22.8619 45.5277 22.8619 46.786 23.546L53.7638 27.5369C54.9077 28.221 55.7085 29.4753 55.7085 30.8436V38.9393C55.7085 40.3076 55.0221 41.5618 53.7638 42.246L46.786 46.3509C45.6421 47.035 44.155 47.035 42.8967 46.3509L35.9188 42.36C34.7749 41.6759 33.9742 40.4216 33.9742 39.0533V33.8082L27.9114 37.3429V42.5881C27.9114 43.9564 28.5978 45.2106 29.8561 45.8948L43.0111 53.4204C44.155 54.1045 45.6421 54.1045 46.9004 53.4204L60.0554 45.8948C61.1993 45.2106 62 43.9564 62 42.5881V27.4228C62 26.0545 61.3137 24.8003 60.0554 24.1161L46.786 16.4765Z" fill="#8247E5"/>
</svg>
