<svg fill="none" viewBox="0 0 70 85" xmlns="http://www.w3.org/2000/svg">
  <g clip-path="url(#file-pdf_svg__a)">
    <path fill="#F5F5F4" d="M4 85h62a4 4 0 0 0 4-4V12.525a4 4 0 0 0-1.333-2.98L59.14 1.018A4 4 0 0 0 56.472 0H4a4 4 0 0 0-4 4v77a4 4 0 0 0 4 4Z"/>
    <mask id="file-pdf_svg__b" width="70" height="85" x="0" y="0" maskUnits="userSpaceOnUse" style="mask-type:alpha">
      <path fill="#F5F5F4" d="M4 85h62a4 4 0 0 0 4-4V12.525a4 4 0 0 0-1.333-2.98L59.14 1.018A4 4 0 0 0 56.472 0H4a4 4 0 0 0-4 4v77a4 4 0 0 0 4 4Z"/>
    </mask>
    <g mask="url(#file-pdf_svg__b)">
      <path fill="#E7E5E4" d="M57 0h13v13h-9a4 4 0 0 1-4-4V0Z"/>
    </g>
    <path fill="#A8A29E" d="M23.23 48v-9.455h3.546c.727 0 1.336.136 1.828.407.496.27.87.643 1.122 1.117.256.47.383 1.006.383 1.606 0 .607-.127 1.145-.383 1.616-.255.471-.632.842-1.13 1.113-.5.267-1.113.401-1.843.401h-2.35v-1.408h2.12c.424 0 .772-.073 1.043-.221.27-.148.47-.351.6-.61.132-.258.198-.555.198-.89a1.9 1.9 0 0 0-.198-.887 1.349 1.349 0 0 0-.605-.596c-.27-.144-.62-.216-1.048-.216h-1.57V48h-1.712Zm11.57 0h-3.203v-9.455h3.268c.94 0 1.746.19 2.42.568a3.796 3.796 0 0 1 1.56 1.62c.363.705.545 1.549.545 2.53 0 .985-.183 1.832-.55 2.54a3.797 3.797 0 0 1-1.574 1.63c-.683.378-1.505.567-2.465.567Zm-1.49-1.482h1.408c.658 0 1.208-.12 1.648-.36.44-.243.77-.605.992-1.085.222-.483.333-1.086.333-1.81 0-.723-.111-1.323-.333-1.8a2.266 2.266 0 0 0-.983-1.076c-.43-.24-.966-.36-1.606-.36h-1.46v6.491ZM41.017 48v-9.455h6.057v1.436H42.73v2.567h3.928v1.436H42.73V48h-1.713Z"/>
  </g>
  <defs>
    <clipPath id="file-pdf_svg__a">
      <path fill="#fff" d="M0 0h70v85H0z"/>
    </clipPath>
  </defs>
</svg>
