<svg width="96" height="96" viewBox="0 0 96 96" fill="none" xmlns="http://www.w3.org/2000/svg">
<path d="M70.7442 23.1753C69.073 25.0422 65.1733 25.0241 63.5021 23.344C61.8309 21.6638 61.2738 18.4117 63.5021 16.3581C65.7305 14.3046 69.073 15.0534 70.7442 16.5469C72.4154 18.0404 72.4154 21.3085 70.7442 23.1753Z" fill="#483E5E"/>
<path d="M53.199 9.83581C51.3745 12.072 50.6662 13.3746 49.2894 16.9392C47.5053 21.5583 45.9011 26.6587 45.2495 29.8158C44.5979 32.9728 45.8959 35.6844 48.8547 37.5331C51.9848 39.4887 55.3587 41.0111 59.9199 42.7211C64.4811 44.4312 67.7538 46.869 68.7963 49.3683C69.8389 51.8677 69.6019 56.6806 67.2561 61.2847C64.9104 65.8887 61.6413 70.167 55.9072 74.3764C50.1732 78.5858 46.2563 79.5866 40.5862 80.902C34.9161 82.2175 36.7782 85.4587 38.733 86.1164C40.6878 86.7741 44.9881 87.4318 50.7224 87.1687C56.4567 86.9057 62.1834 85.4587 68.96 82.0385C75.7367 78.6184 82.383 72.699 85.9087 64.8064C89.4345 56.9137 90.8404 45.7784 86.755 38.7607C84.3811 34.6829 83.1649 33.7011 82.383 31.1312C81.6011 28.5614 82.1017 26.6031 83.5581 24.8171C84.3979 23.7874 86.2748 22.7506 87.9943 21.5109C89.3496 20.5337 90.9841 19.5554 92.157 18.7661C93.3298 17.9769 93.7284 17.5646 92.9465 17.0384L92.9185 17.0196C92.1275 16.4872 90.5684 15.4377 87.8564 14.4252C85.1121 13.4005 84.5953 13.2595 83.5581 13.1758C82.5209 13.0921 81.2177 14.0129 79.1326 15.5914C77.0475 17.1699 76.1352 17.4782 76.0049 19.2746C75.8746 21.0711 75.3533 23.3525 73.9198 25.3256C72.4863 27.2988 70.5647 28.3006 67.9917 28.5614C65.4188 28.8221 61.9393 28.0236 60.2286 26.001C58.5179 23.9784 57.8285 22.8249 57.8285 19.9566C57.8285 17.0883 58.933 15.0652 60.4014 13.6183C61.8698 12.1713 61.8001 11.6451 61.8001 10.9874C61.8001 10.3297 61.4588 8.09242 61.1733 7.04942C60.8878 6.00641 59.8634 5.84223 58.1909 6.39122C56.4397 6.96609 55.0235 7.59957 53.199 9.83581Z" fill="#483E5E"/>
<path d="M27.3625 64.7364C26.5181 64.9593 25.9259 66.4081 24.2681 69.3057C22.6104 72.2032 21.0551 74.3207 18.0876 77.5526C15.12 80.7845 13.2559 82.1218 8.53519 85.0194L8.4134 85.0941C3.79072 87.9315 2.43115 88.766 2.11038 89.6242C1.78682 90.4899 1.97714 91.6304 5.44738 92.1653C8.91762 92.7003 11.8107 92.8205 16.8237 89.3657C21.8367 85.9109 25.7755 82.5676 30.9697 80.1158C36.164 77.664 37.7902 77.818 43.6083 76.1038C49.4264 74.3895 54.7303 71.0255 58.3903 66.9377C62.0504 62.8498 63.8803 58.7296 64.6214 56.3884C65.3625 54.0472 65.4678 50.9275 63.4881 49.3671C61.5966 47.8762 60.5747 47.4279 56.3998 45.8675C51.9599 44.208 50.4859 43.7921 47.2149 41.1914C44.1324 38.7405 44.3154 38.1548 42.3784 37.8947C40.4414 37.6346 38.9732 40.5321 38.3197 41.9826C37.8278 43.0741 37.7438 45.0011 39.046 46.8148C40.3482 48.6285 41.559 50.6248 45.1258 52.6514C48.6926 54.678 50.3544 55.0022 52.7863 55.4075C55.2182 55.8129 56.1678 56.3884 55.5142 57.5428C54.8606 58.6972 53.5534 59.2571 51.3312 59.2571C49.109 59.2571 45.9719 58.2345 42.8347 56.3884C40.6223 55.0865 39.0439 53.6192 37.8907 52.1687C36.7698 50.7587 36.0975 50.5539 35.0582 50.5539C34.019 50.5539 33.1641 51.2132 31.921 53.0593C30.678 54.9054 29.7629 56.9053 29.6322 57.9886C29.5015 59.0718 29.3842 60.28 31.345 61.7305C33.3058 63.181 34.9999 63.9695 37.2221 64.3651C39.4443 64.7607 41.1353 65.4548 39.5076 66.9377C37.8798 68.4206 35.9067 68.0921 34.3381 67.6965C32.7695 67.3009 30.4935 66.0738 29.6322 65.5166C28.7709 64.9593 28.207 64.5136 27.3625 64.7364Z" fill="#483E5E"/>
<path d="M76.6281 12.6654C77.8075 11.9314 79.1108 10.968 79.1108 10.2942C79.1108 9.62028 78.447 8.81162 75.659 7.05952C72.871 5.30742 69.0211 3.31748 66.4986 3.01612C63.9761 2.71477 65.0688 6.72314 65.3661 8.30833C65.6633 9.89352 65.752 11.1276 66.8003 11.2558C67.8486 11.3839 68.6348 11.512 69.5521 11.7683C70.4694 12.0246 71.6487 12.5773 72.9591 13.3461C74.2695 14.115 75.4488 13.3993 76.6281 12.6654Z" fill="#483E5E"/>
</svg>
