<svg width="40" height="40" viewBox="0 0 40 40" fill="none" xmlns="http://www.w3.org/2000/svg">
<mask id="mask0_393_234" style="mask-type:alpha" maskUnits="userSpaceOnUse" x="4" y="5" width="32" height="31">
<rect x="4.7998" y="5.59998" width="31.1368" height="30.3385" fill="#C4C4C4"/>
</mask>
<g mask="url(#mask0_393_234)">
<path d="M26.4449 14.2135C25.9965 14.7144 24.9502 14.7095 24.5018 14.2587C24.0534 13.8079 23.9039 12.9354 24.5018 12.3844C25.0996 11.8334 25.9965 12.0343 26.4449 12.435C26.8933 12.8358 26.8933 13.7126 26.4449 14.2135Z" fill="#483E5E"/>
<path d="M21.7368 10.6343C21.2473 11.2343 21.0573 11.5837 20.6879 12.5401C20.2091 13.7795 19.7787 15.148 19.6039 15.995C19.4291 16.8421 19.7774 17.5696 20.5712 18.0656C21.411 18.5903 22.3163 18.9988 23.5401 19.4576C24.7639 19.9165 25.642 20.5705 25.9217 21.2411C26.2014 21.9117 26.1378 23.2031 25.5085 24.4384C24.8791 25.6737 24.002 26.8216 22.4635 27.951C20.925 29.0804 19.8741 29.3489 18.3527 29.7019C16.8314 30.0548 17.331 30.9245 17.8555 31.1009C18.38 31.2774 19.5338 31.4539 21.0723 31.3833C22.6109 31.3127 24.1474 30.9245 25.9656 30.0068C27.7839 29.0892 29.5671 27.5009 30.5131 25.3833C31.4591 23.2656 31.8363 20.2779 30.7402 18.395C30.1032 17.3009 29.7769 17.0375 29.5671 16.348C29.3573 15.6585 29.4916 15.1331 29.8824 14.6539C30.1077 14.3776 30.6113 14.0994 31.0727 13.7668C31.4363 13.5046 31.8749 13.2421 32.1895 13.0303C32.5042 12.8186 32.6112 12.7079 32.4014 12.5668L32.3939 12.5617C32.1816 12.4189 31.7633 12.1373 31.0357 11.8656C30.2994 11.5907 30.1607 11.5529 29.8824 11.5304C29.6041 11.5079 29.2545 11.755 28.695 12.1785C28.1356 12.6021 27.8908 12.6848 27.8558 13.1668C27.8209 13.6488 27.681 14.2609 27.2964 14.7903C26.9118 15.3197 26.3962 15.5885 25.7058 15.6585C25.0155 15.7284 24.0819 15.5142 23.6229 14.9715C23.1639 14.4288 22.979 14.1193 22.979 13.3497C22.979 12.5802 23.2753 12.0373 23.6693 11.6491C24.0633 11.2609 24.0446 11.1197 24.0446 10.9432C24.0446 10.7668 23.953 10.1665 23.8764 9.88664C23.7998 9.6068 23.5249 9.56274 23.0762 9.71004C22.6063 9.86429 22.2263 10.0343 21.7368 10.6343Z" fill="#483E5E"/>
<path d="M14.805 25.3643C14.5784 25.4241 14.4195 25.8129 13.9747 26.5903C13.5299 27.3677 13.1126 27.9359 12.3164 28.803C11.5202 29.6701 11.02 30.029 9.75344 30.8064L9.72078 30.8264C8.48047 31.5877 8.11568 31.8116 8.02962 32.0419C7.9428 32.2742 7.99387 32.5802 8.92496 32.7237C9.85605 32.8673 10.6323 32.8995 11.9773 31.9726C13.3223 31.0456 14.3791 30.1486 15.7728 29.4907C17.1665 28.8329 17.6028 28.8742 19.1638 28.4143C20.7249 27.9543 22.1479 27.0517 23.13 25.9549C24.112 24.8581 24.603 23.7526 24.8018 23.1245C25.0007 22.4963 25.0289 21.6593 24.4977 21.2406C23.9902 20.8406 23.7161 20.7203 22.5959 20.3016C21.4046 19.8564 21.0091 19.7448 20.1315 19.047C19.3045 18.3894 19.3535 18.2323 18.8338 18.1625C18.3141 18.0927 17.9202 18.8701 17.7448 19.2593C17.6129 19.5522 17.5903 20.0692 17.9397 20.5558C18.2891 21.0425 18.614 21.5781 19.571 22.1218C20.528 22.6656 20.9739 22.7526 21.6264 22.8613C22.2789 22.9701 22.5336 23.1245 22.3583 23.4342C22.1829 23.744 21.8322 23.8942 21.2359 23.8942C20.6397 23.8942 19.798 23.6198 18.9563 23.1245C18.3627 22.7752 17.9392 22.3815 17.6298 21.9923C17.329 21.614 17.1486 21.559 16.8698 21.559C16.5909 21.559 16.3616 21.7359 16.028 22.2313C15.6945 22.7266 15.449 23.2632 15.4139 23.5538C15.3789 23.8445 15.3474 24.1686 15.8735 24.5578C16.3996 24.947 16.8541 25.1585 17.4504 25.2647C18.0466 25.3708 18.5003 25.5571 18.0636 25.9549C17.6268 26.3528 17.0974 26.2647 16.6766 26.1585C16.2557 26.0524 15.645 25.7231 15.4139 25.5736C15.1828 25.4241 15.0315 25.3045 14.805 25.3643Z" fill="#483E5E"/>
<path d="M28.0231 11.3935C28.3396 11.1965 28.6892 10.9381 28.6892 10.7573C28.6892 10.5764 28.5111 10.3595 27.7631 9.88937C27.0151 9.41927 25.9821 8.88535 25.3053 8.8045C24.6285 8.72364 24.9217 9.79912 25.0014 10.2244C25.0812 10.6498 25.105 10.9809 25.3863 11.0153C25.6675 11.0496 25.8785 11.084 26.1246 11.1528C26.3707 11.2215 26.6871 11.3698 27.0387 11.5761C27.3903 11.7824 27.7067 11.5904 28.0231 11.3935Z" fill="#483E5E"/>
</g>
</svg>
