<svg fill="none" viewBox="0 0 70 60" xmlns="http://www.w3.org/2000/svg">
  <g clip-path="url(#zip_svg__a)">
    <path fill="#E7E5E4" d="M4 60h62a4 4 0 0 0 4-4V8a4 4 0 0 0-4-4H34.236A3.618 3.618 0 0 1 31 2a3.618 3.618 0 0 0-3.236-2H8.236C6.866 0 5.613.774 5 2l-.317.633A2.472 2.472 0 0 1 2.473 4 2.472 2.472 0 0 0 0 6.472V56a4 4 0 0 0 4 4Z"/>
    <path fill="#F5F5F4" d="M0 12a4 4 0 0 1 4-4h24.586C29.49 8 30.36 7.64 31 7c.64-.64 1.509-1 2.414-1H66a4 4 0 0 1 4 4v46a4 4 0 0 1-4 4H4a4 4 0 0 1-4-4V12Z"/>
    <path fill="#A8A29E" d="M26.05 38v-1.066l4.847-6.953h-4.875v-1.436h6.999v1.067l-4.843 6.952h4.87V38H26.05Zm10.369-9.454V38h-1.713v-9.454h1.713ZM38.273 38v-9.454h3.546c.726 0 1.335.135 1.828.406.495.27.87.643 1.122 1.117.255.47.383 1.006.383 1.606 0 .607-.128 1.145-.383 1.616-.256.471-.633.842-1.131 1.113-.499.267-1.113.401-1.842.401h-2.35v-1.408h2.119c.425 0 .772-.073 1.043-.221.271-.148.471-.351.6-.61.133-.258.199-.555.199-.89a1.9 1.9 0 0 0-.199-.887 1.349 1.349 0 0 0-.604-.596c-.271-.144-.62-.216-1.048-.216h-1.57V38h-1.713Z"/>
  </g>
  <defs>
    <clipPath id="zip_svg__a">
      <path fill="#fff" d="M0 0h70v60H0z"/>
    </clipPath>
  </defs>
</svg>
