<svg width="26" height="26" viewBox="0 0 26 26" fill="none" xmlns="http://www.w3.org/2000/svg">
<circle cx="13" cy="13" r="12" fill="#F1EFED" stroke="#D6D1CC" stroke-width="0.5"/>
<path d="M16.2791 8.67904C16.0159 8.96977 15.4056 8.96358 15.1455 8.69917C14.8854 8.43476 14.801 7.92529 15.1515 7.60582C15.5021 7.28634 16.0246 7.40643 16.2848 7.64162C16.5451 7.87681 16.5423 8.3883 16.2791 8.67904Z" fill="#483E5E"/>
<path d="M13.5445 6.57611C13.2571 6.92453 13.1451 7.12778 12.9265 7.68448C12.6433 8.40589 12.3878 9.20277 12.2831 9.69632C12.1784 10.1899 12.3792 10.6154 12.8407 10.9073C13.3289 11.216 13.8556 11.4572 14.568 11.7288C15.2804 12.0004 15.7905 12.3848 15.9515 12.7768C16.1125 13.1689 16.0713 13.922 15.7002 14.6405C15.3291 15.3591 14.8137 16.0259 13.9126 16.6797C13.0116 17.3336 12.3977 17.4868 11.5091 17.6878C10.6205 17.8888 10.9092 18.3977 11.2145 18.5023C11.5199 18.607 12.1924 18.7136 13.0901 18.6774C13.9878 18.6412 14.8854 18.4196 15.9489 17.8902C17.0125 17.3608 18.0578 16.4401 18.6165 15.2078C19.1751 13.9756 19.4048 12.234 18.7714 11.1321C18.4034 10.4919 18.2139 10.3372 18.0937 9.93428C17.9736 9.5314 18.0536 9.22534 18.2831 8.94707C18.4154 8.78663 18.7101 8.62599 18.9803 8.43344C19.1932 8.28168 19.4499 8.12997 19.6341 8.00746C19.8184 7.88494 19.8811 7.82076 19.7592 7.73773L19.7548 7.73476C19.6315 7.65075 19.3884 7.48516 18.9648 7.32434C18.5362 7.1616 18.4554 7.13909 18.2932 7.12509C18.1309 7.11109 17.9261 7.25408 17.5984 7.49933C17.2707 7.74458 17.1277 7.79204 17.1057 8.07309C17.0838 8.35414 17.0002 8.71075 16.7742 9.01833C16.5481 9.32592 16.2465 9.48105 15.8436 9.51964C15.4406 9.55823 14.8968 9.43025 14.6308 9.11221C14.3648 8.79417 14.2579 8.61303 14.2604 8.16412C14.2628 7.71521 14.4374 7.39953 14.6685 7.17433C14.8996 6.94913 14.8891 6.86672 14.8897 6.76378C14.8903 6.66084 14.8388 6.31039 14.795 6.1469C14.7512 5.98341 14.591 5.95683 14.3288 6.04131C14.0542 6.12977 13.832 6.22769 13.5445 6.57611Z" fill="#483E5E"/>
<path d="M9.45338 15.1462C9.32102 15.1803 9.22708 15.4065 8.96512 15.8586C8.70317 16.3107 8.45792 16.6407 7.99068 17.144C7.52343 17.6473 7.23052 17.855 6.48918 18.3044L6.47004 18.316C5.7441 18.7561 5.53059 18.8855 5.47965 19.0195C5.42826 19.1547 5.45706 19.3334 5.99973 19.4201C6.5424 19.5069 6.99508 19.5282 7.78266 18.9918C8.57023 18.4554 9.18958 17.9355 10.0047 17.5563C10.8197 17.1771 11.0741 17.2026 11.9862 16.9393C12.8983 16.676 13.7313 16.1541 14.3077 15.5175C14.884 14.8808 15.174 14.2376 15.292 13.8718C15.41 13.506 15.4292 13.0178 15.1207 12.7719C14.8259 12.5369 14.6664 12.4659 14.0143 12.218C13.3209 11.9545 13.0905 11.8881 12.5808 11.4783C12.1005 11.092 12.1296 11.0005 11.8267 10.9581C11.5238 10.9157 11.2915 11.3679 11.1879 11.5944C11.11 11.7648 11.0952 12.0663 11.2975 12.3513C11.4997 12.6363 11.6875 12.9498 12.244 13.2701C12.8004 13.5903 13.0603 13.6425 13.4405 13.708C13.8208 13.7736 13.9689 13.8645 13.8656 14.0446C13.7623 14.2247 13.5573 14.3112 13.2095 14.3093C12.8617 14.3074 12.3716 14.1446 11.8821 13.853C11.537 13.6473 11.2912 13.4163 11.112 13.1883C10.9378 12.9666 10.8327 12.934 10.6701 12.9331C10.5074 12.9322 10.3731 13.0346 10.1769 13.3225C9.98078 13.6104 9.83583 13.9226 9.81444 14.092C9.79304 14.2614 9.77364 14.4504 10.0793 14.6791C10.3849 14.9078 10.6494 15.0327 10.9968 15.0965C11.3443 15.1604 11.6083 15.2705 11.3523 15.5012C11.0963 15.7318 10.7877 15.6787 10.5426 15.6155C10.2974 15.5522 9.94225 15.3582 9.80793 15.2702C9.67362 15.1823 9.58574 15.112 9.45338 15.1462Z" fill="#483E5E"/>
<path d="M17.2091 7.03937C17.3943 6.92552 17.5991 6.77586 17.5997 6.67039C17.6003 6.56492 17.4971 6.43778 17.0623 6.16115C16.6274 5.88452 16.0266 5.56975 15.632 5.52041C15.2375 5.47106 15.4051 6.09936 15.4502 6.34771C15.4954 6.59607 15.5082 6.78929 15.6722 6.81026C15.8361 6.83122 15.9591 6.85195 16.1024 6.89286C16.2457 6.93376 16.4298 7.02127 16.6343 7.14275C16.8387 7.26422 17.0239 7.15322 17.2091 7.03937Z" fill="#483E5E"/>
</svg>
